<?xml version="1.0" standalone="no"?>
<!DOCTYPE svg PUBLIC "-//W3C//DTD SVG 20010904//EN"
 "http://www.w3.org/TR/2001/REC-SVG-20010904/DTD/svg10.dtd">
<svg version="1.0" xmlns="http://www.w3.org/2000/svg"
 width="2233.000000pt" height="660.000000pt" viewBox="0 0 2233.000000 660.000000"
 preserveAspectRatio="xMidYMid meet">

<g transform="translate(0.000000,660.000000) scale(0.100000,-0.100000)"
fill="#000000" stroke="none">
<path d="M4812 6320 c-197 -52 -347 -177 -431 -358 -48 -106 -63 -206 -51
-350 5 -64 10 -152 10 -195 0 -71 -2 -77 -17 -69 -58 31 -329 126 -429 152
-341 88 -727 104 -1044 44 -273 -52 -535 -154 -770 -300 -463 -286 -807 -763
-944 -1309 -51 -204 -60 -283 -61 -550 0 -281 12 -383 70 -611 46 -178 91
-299 185 -489 244 -496 633 -895 1123 -1150 257 -134 492 -212 792 -262 171
-28 556 -25 726 5 479 86 867 283 1192 607 395 394 630 952 638 1520 l2 90 8
-80 c72 -705 449 -1307 1049 -1680 526 -326 1188 -419 1800 -254 63 17 165 51
227 75 61 24 114 44 118 44 4 0 24 -19 43 -42 116 -136 244 -219 400 -259 93
-24 252 -26 337 -4 198 50 368 204 426 385 11 36 27 79 34 95 9 22 16 195 24
690 7 363 14 670 17 683 2 12 0 31 -5 41 -7 12 -5 48 6 112 12 68 17 156 17
319 0 191 -3 245 -23 355 -85 482 -302 891 -648 1226 -324 313 -705 508 -1163
596 -184 35 -503 44 -699 19 -253 -33 -483 -102 -716 -216 -452 -221 -806
-572 -1024 -1015 -135 -273 -190 -483 -229 -870 -7 -66 -9 -41 -11 145 -4 292
-13 614 -45 1560 -25 738 -27 778 -48 829 -34 85 -103 179 -195 268 -71 69
-105 92 -197 138 -66 33 -140 61 -181 70 -97 20 -224 18 -313 -5z m275 -75
c110 -21 223 -79 311 -160 39 -36 81 -83 93 -103 43 -71 113 -177 131 -197 16
-19 19 -69 33 -495 9 -261 20 -567 24 -680 5 -113 12 -344 15 -515 l6 -310
-25 50 c-14 28 -25 56 -25 62 0 13 -44 115 -61 143 -10 16 -16 28 -60 128 -98
217 -346 548 -549 731 -163 147 -343 278 -497 362 -44 23 -61 39 -57 49 3 8 0
113 -7 235 -10 198 -9 227 6 285 54 207 223 368 436 414 85 19 131 19 226 1z
m-1487 -770 c254 -38 478 -109 725 -230 748 -366 1265 -1085 1376 -1915 17
-123 17 -429 0 -550 -51 -379 -190 -726 -408 -1018 -71 -95 -244 -274 -340
-354 -455 -373 -1075 -539 -1683 -452 -421 60 -840 245 -1189 523 -280 224
-517 520 -676 846 -122 248 -192 470 -231 730 -25 165 -25 477 -1 635 119 776
598 1382 1316 1664 163 64 415 121 621 140 88 8 387 -4 490 -19z m4820 -156
c357 -60 682 -202 975 -422 116 -88 320 -295 413 -421 625 -844 539 -2002
-204 -2750 -333 -335 -758 -548 -1244 -622 -156 -24 -453 -24 -610 0 -487 73
-914 287 -1251 626 -226 228 -402 516 -505 826 -82 250 -109 436 -101 717 6
256 41 444 123 666 283 765 984 1306 1815 1400 134 16 444 5 589 -20z m1760
-3449 c-10 -401 -18 -484 -56 -581 -145 -368 -639 -441 -946 -139 -43 41 -78
81 -78 87 0 6 48 39 108 74 224 133 457 332 611 524 133 166 283 423 342 588
l24 68 3 -113 c1 -62 -2 -291 -8 -508z"/>
<path d="M3185 4173 c-336 -71 -620 -339 -716 -673 -27 -96 -37 -308 -19 -416
30 -192 121 -367 264 -510 309 -308 796 -362 1173 -128 104 64 244 206 307
312 56 94 110 244 127 352 15 97 5 284 -19 375 -77 282 -261 503 -520 622
-127 59 -244 83 -396 82 -75 0 -161 -7 -201 -16z m425 -93 c345 -97 585 -378
631 -737 22 -172 -24 -377 -119 -537 -51 -86 -169 -214 -243 -264 -179 -121
-403 -178 -596 -152 -426 56 -737 388 -760 810 -22 423 268 799 687 891 112
25 291 20 400 -11z"/>
<path d="M7785 4116 c-399 -79 -676 -397 -701 -805 -30 -491 335 -954 831
-1052 107 -21 311 -16 410 10 327 87 563 338 631 671 22 110 15 311 -15 423
-94 355 -385 642 -749 739 -100 26 -307 33 -407 14z m261 -76 c385 -41 712
-325 816 -711 29 -110 31 -310 4 -409 -43 -157 -115 -279 -224 -381 -154 -144
-323 -208 -548 -209 -496 -1 -924 426 -924 919 0 129 12 201 51 302 86 224
265 389 498 460 122 36 195 43 327 29z"/>
<path d="M20345 6034 c-354 -57 -605 -343 -605 -689 0 -190 68 -353 203 -484
104 -101 207 -151 362 -176 222 -35 424 33 591 199 211 210 262 515 132 786
-33 68 -57 100 -127 170 -93 93 -181 145 -296 175 -63 16 -209 27 -260 19z
m230 -99 c187 -49 343 -191 405 -368 56 -158 45 -312 -31 -467 -133 -269 -453
-406 -726 -311 -104 36 -164 75 -240 154 -70 73 -116 158 -144 265 -23 90 -24
162 -4 257 48 226 230 416 452 469 79 19 216 19 288 1z"/>
<path d="M10995 5426 c-143 -28 -253 -84 -345 -176 -119 -118 -171 -245 -172
-415 -1 -203 80 -386 238 -536 93 -87 220 -166 250 -155 8 3 23 -3 34 -14 20
-20 29 -20 872 -14 598 5 850 4 847 -3 -2 -6 -132 -136 -289 -289 -669 -654
-1588 -1550 -1734 -1693 -173 -167 -192 -197 -222 -329 -25 -112 -16 -281 21
-391 63 -187 228 -366 393 -427 26 -10 55 -26 65 -36 13 -13 33 -18 75 -18 31
0 794 -9 1694 -21 l1637 -21 65 22 c184 61 337 232 398 445 29 102 31 286 5
385 -32 120 -92 227 -176 311 -128 128 -242 168 -476 169 -71 0 -395 9 -720
20 -324 11 -621 20 -659 20 l-70 0 160 163 c88 89 524 535 969 992 446 456
846 866 890 910 129 129 185 265 185 456 0 118 -25 222 -77 322 -68 129 -200
248 -329 296 -52 20 -82 21 -1241 26 -654 2 -1420 7 -1703 9 -410 4 -529 2
-585 -8z m3425 -92 c87 -7 185 -60 263 -143 173 -183 214 -442 106 -668 -26
-54 -54 -90 -139 -173 -59 -58 -302 -305 -541 -550 -238 -245 -611 -627 -828
-850 -217 -223 -464 -474 -548 -559 -84 -84 -153 -161 -153 -171 0 -10 6 -22
13 -27 7 -6 360 -21 872 -37 690 -21 872 -29 923 -42 163 -42 307 -202 357
-399 21 -85 19 -235 -5 -329 -49 -194 -197 -357 -360 -399 -53 -14 -560 -10
-3100 25 -198 3 -221 5 -297 29 -102 32 -179 78 -248 149 -71 72 -86 93 -124
169 -84 166 -93 360 -23 521 16 37 228 248 1121 1120 925 903 1101 1079 1101
1102 0 15 5 30 10 33 16 10 11 54 -7 63 -10 5 -414 6 -913 3 -848 -6 -896 -5
-920 12 -14 10 -60 40 -102 68 -129 84 -232 212 -286 357 -38 103 -42 242 -9
343 45 141 129 239 262 304 141 70 3 65 1850 59 919 -3 1695 -7 1725 -10z"/>
<path d="M17135 5288 c-540 -61 -1041 -308 -1421 -700 -358 -370 -574 -835
-623 -1342 -66 -677 212 -1363 728 -1798 388 -326 847 -500 1363 -515 346 -10
638 42 951 169 l99 40 81 -81 c172 -171 315 -241 493 -241 346 0 613 338 715
905 22 118 24 158 23 425 0 247 -4 316 -21 424 -14 85 -18 139 -12 160 36 135
55 425 40 606 -89 1042 -886 1843 -1940 1950 -121 12 -362 11 -476 -2z m421
-78 c402 -33 794 -179 1112 -417 97 -73 276 -245 355 -343 652 -808 585 -1977
-158 -2749 -186 -193 -378 -332 -630 -456 -217 -107 -424 -172 -670 -211 -152
-25 -468 -25 -624 -1 -886 138 -1556 762 -1737 1620 -32 150 -44 474 -25 634
125 1024 972 1829 2023 1922 136 12 210 12 354 1z m1910 -2975 c18 -472 -91
-899 -290 -1136 -221 -264 -509 -262 -781 4 -65 63 -77 80 -65 88 8 5 61 36
117 69 57 33 149 95 205 137 115 86 335 300 421 409 134 171 267 404 337 591
l35 92 7 -37 c4 -20 10 -118 14 -217z"/>
<path d="M17050 4009 c-282 -47 -536 -252 -645 -520 -60 -149 -77 -367 -41
-527 84 -378 388 -680 771 -768 118 -28 322 -25 433 4 328 88 561 334 628 662
13 65 15 114 11 215 -7 157 -28 240 -97 380 -142 287 -417 496 -727 550 -93
16 -246 18 -333 4z m358 -94 c189 -45 384 -165 506 -311 355 -428 255 -1031
-210 -1263 -218 -109 -499 -110 -729 -2 -207 97 -356 240 -454 437 -60 119
-82 209 -88 354 -6 138 6 209 54 329 91 230 318 417 558 460 33 6 71 13 85 15
44 8 213 -4 278 -19z"/>
<path d="M20275 4566 c-217 -41 -403 -206 -504 -446 -38 -88 -41 -106 -24
-130 20 -28 20 -28 -23 -1299 -19 -589 -31 -1047 -26 -1050 25 -17 34 -54 22
-95 -13 -49 0 -210 25 -294 23 -76 77 -189 114 -240 101 -137 465 -165 723
-56 151 63 316 203 381 322 40 74 55 190 56 422 0 181 42 1828 57 2217 l6 173
-46 74 c-189 304 -478 456 -761 402z m248 -92 c126 -32 262 -122 354 -233 93
-113 99 -130 106 -265 6 -103 -40 -1956 -59 -2439 l-7 -167 -36 -61 c-122
-206 -414 -351 -675 -336 -141 8 -187 23 -260 83 -84 70 -112 108 -143 196
-21 61 -26 93 -27 193 -2 112 67 2354 78 2567 6 110 22 151 100 255 47 62 138
138 208 174 95 49 248 63 361 33z"/>
</g>
</svg>
